<?xml version="1.0" encoding="UTF-8"?><svg id="a" xmlns="http://www.w3.org/2000/svg" viewBox="0 0 1810.583 3000"><polygon points="814.889 1717.168 1468.09 3000 1148.567 1436.504 814.889 1717.168" fill="#6aa1b2"/><line x1="1468.09" y1="3000" x2="1148.567" y2="1436.504" fill="#6aa1b2"/><polygon points="1468.09 3000 1148.567 1436.504 971.951 1585.06 1468.09 3000" fill="#51868f"/><ellipse cx="946.55" cy="1479.623" rx="904.698" ry="441.722" transform="translate(-446.992 410.38) rotate(-19.894)" fill="#f0a637"/><path d="M1109.353,981.798c86.323,151.155,89.978,349.007,25.134,507.641-74.091,181.252-284.977,313.808-461.856,364.16-142.452,40.552-275.604,28.244-424.385,20.698-34.548-1.752-69.355-4.662-104.154-8.7,148.316,159.925,542.253,177.939,952.764,29.388,469.835-170.019,783.418-493.808,700.405-723.208-64.131-177.225-346.272-246.141-687.909-189.98Z" fill="#d98e2d"/><path d="M930.56,1435.436h0c-254.254,92.007-521.991-28.695-574.735-259.102L217.92,573.903,926.847,317.366l279.547,551.175c106.916,210.804-21.579,474.889-275.833,566.895Z" fill="#c97f29"/><path d="M930.56,1435.436h0c-254.254,92.007-521.991-28.695-574.735-259.102L217.92,573.903,926.847,317.366l279.547,551.175c106.916,210.804-21.579,474.889-275.833,566.895Z" fill="#c97f29"/><path d="M217.92,573.903l26.901,117.518c4.648,.798,9.276,2.713,13.373,7.298,76.536,85.664,192.798,72.442,292.117,39.393,101.673-33.833,194.698-89.599,285.982-144.69,9.932-5.992,22.033-2.542,30.134,4.567,85.535,75.055,147.814,177.215,146.331,293.818-2.451,192.967-161.808,352.197-326.875,429.133-64.13,29.891-132.2,48.81-200.588,55.879,113.883,88.81,282.193,117.628,445.262,58.618h.001c254.255-92.007,382.751-356.092,275.834-566.895L926.846,317.366,217.92,573.903Z" fill="#bb5927"/><ellipse cx="537.205" cy="348.422" rx="560.051" ry="310.145" transform="translate(-86.502 203.588) rotate(-19.894)" fill="#d98e2d"/><path d="M680.901,186.952c-9.854-80.258-91.466-136.323-169.147-155.466-26.515,7.173-53.266,15.593-80.084,25.298C140.821,162.033-47.711,377.925,10.574,538.992c4.972,13.739,11.581,26.633,19.689,38.665,94.183,15.828,203.785,18.049,294.196,.373,103.13-20.164,189.977-80.28,258.447-158.388,53.436-60.956,108.435-147.653,97.995-232.691Z" fill="#f0a637"/></svg>